<?xml version="1.0" encoding="UTF-8" standalone="no"?>
<!-- Created with Inkscape (http://www.inkscape.org/) -->

<svg
   xmlns:dc="http://purl.org/dc/elements/1.1/"
   xmlns:cc="http://creativecommons.org/ns#"
   xmlns:rdf="http://www.w3.org/1999/02/22-rdf-syntax-ns#"
   xmlns:svg="http://www.w3.org/2000/svg"
   xmlns="http://www.w3.org/2000/svg"
   xmlns:sodipodi="http://sodipodi.sourceforge.net/DTD/sodipodi-0.dtd"
   xmlns:inkscape="http://www.inkscape.org/namespaces/inkscape"
   id="svg2"
   version="1.1"
   inkscape:version="0.48.3.1 r9886"
   width="470.78879"
   height="90.977226"
   xml:space="preserve"
   sodipodi:docname="thi_allianz_logo.pdf"><metadata
     id="metadata8"><rdf:RDF><cc:Work
         rdf:about=""><dc:format>image/svg+xml</dc:format><dc:type
           rdf:resource="http://purl.org/dc/dcmitype/StillImage" /><dc:title></dc:title></cc:Work></rdf:RDF></metadata><defs
     id="defs6"><clipPath
       clipPathUnits="userSpaceOnUse"
       id="clipPath20"><path
         d="M 0,0 595,0 595,842 0,842 0,0 z"
         id="path22"
         inkscape:connector-curvature="0" /></clipPath><clipPath
       clipPathUnits="userSpaceOnUse"
       id="clipPath30"><path
         d="m 229,6509.67 4500,0 0,-3000 -4500,0 0,3000 z"
         clip-rule="evenodd"
         id="path32"
         inkscape:connector-curvature="0" /></clipPath><clipPath
       clipPathUnits="userSpaceOnUse"
       id="clipPath104"><path
         d="m 229,3509.67 4500,0 0,-3000.002 -4500,0 0,3000.002 z"
         clip-rule="evenodd"
         id="path106"
         inkscape:connector-curvature="0" /></clipPath><clipPath
       id="clp5"><path
         id="path37641"
         d="m 1457.1,761.7 87.3,0 0,-22.6 -87.3,0 0,22.6 z"
         inkscape:connector-curvature="0" /></clipPath></defs><sodipodi:namedview
     pagecolor="#ffffff"
     bordercolor="#666666"
     borderopacity="1"
     objecttolerance="10"
     gridtolerance="10"
     guidetolerance="10"
     inkscape:pageopacity="0"
     inkscape:pageshadow="2"
     inkscape:window-width="1680"
     inkscape:window-height="963"
     id="namedview4"
     showgrid="false"
     fit-margin-top="0"
     fit-margin-left="0"
     fit-margin-right="0"
     fit-margin-bottom="0"
     borderlayer="true"
     inkscape:zoom="1.03"
     inkscape:cx="-142.88925"
     inkscape:cy="253.8864"
     inkscape:window-x="0"
     inkscape:window-y="27"
     inkscape:window-maximized="1"
     inkscape:current-layer="g10" /><g
     id="g10"
     inkscape:groupmode="layer"
     inkscape:label="thi_allianz_logo"
     transform="matrix(1.25,0,0,-1.25,-0.0125,90.990226)"><g
       id="g12" /><path
       d="m 87.97,17.6504 0,5.64 -4.08,0 0,-5.64 -1.68,0 0,12.36 1.68,0 0,-5.04 4.08,0 0,5.04 1.68,0 0,-12.36 -1.68,0"
       style="fill:#005a9b;fill-opacity:1;fill-rule:nonzero;stroke:none"
       id="path36"
       inkscape:connector-curvature="0" /><path
       d="m 95.29,17.4104 0,0 c -2.16,0 -3.48,1.32 -3.48,3.36 l 0,2.76 c 0,2.04 1.44,3.36 3.48,3.36 2.04,0 3.36,-1.32 3.36,-3.36 l 0,-2.76 c 0,-2.04 -1.32,-3.36 -3.36,-3.36 z m 1.8,6.12 0,0 c 0,0.72 -0.48,1.68 -1.8,1.68 -1.2,0 -1.8,-0.6 -1.8,-1.68 l 0,-2.76 c 0,-0.72 0.36,-1.68 1.8,-1.68 1.08,0 1.8,0.6 1.8,1.68 l 0,2.76"
       style="fill:#005a9b;fill-opacity:1;fill-rule:nonzero;stroke:none"
       id="path38"
       inkscape:connector-curvature="0" /><path
       d="m 107.53,23.7704 -1.56,0 c -0.24,0.72 -0.6,1.44 -1.8,1.44 -1.08,0 -1.8,-0.6 -1.8,-1.68 l 0,-2.76 c 0,-0.72 0.36,-1.68 1.8,-1.68 0.96,0 1.56,0.6 1.68,1.44 l 1.68,0 c -0.12,-1.92 -1.44,-3.12 -3.36,-3.12 -2.04,0 -3.48,1.32 -3.48,3.36 l 0,2.76 c 0,2.04 1.44,3.36 3.48,3.36 1.92,0 3.24,-1.2 3.36,-3.12"
       style="fill:#005a9b;fill-opacity:1;fill-rule:nonzero;stroke:none"
       id="path40"
       inkscape:connector-curvature="0" /><path
       d="m 114.61,17.6504 0,5.88 c 0,0.72 -0.12,1.68 -1.56,1.68 -1.08,0 -1.8,-0.6 -1.8,-1.56 l 0,-6 -1.68,0 0,12.36 1.68,0 0,-3.72 c 0.48,0.36 1.2,0.6 1.8,0.6 2.16,0 3.24,-1.32 3.24,-3.36 l 0,-5.88 -1.68,0"
       style="fill:#005a9b;fill-opacity:1;fill-rule:nonzero;stroke:none"
       id="path42"
       inkscape:connector-curvature="0" /><path
       d="m 121.69,17.5304 0,0 c -2.04,0 -3.36,1.08 -3.48,3 l 1.68,0 c 0.12,-0.96 0.84,-1.44 1.8,-1.44 0.84,0 1.8,0.24 1.8,1.32 0,0.36 -0.36,0.72 -0.96,0.96 -0.72,0.24 -1.44,0.36 -2.16,0.48 -1.08,0.36 -2.04,1.08 -2.04,2.28 0,1.92 1.56,2.76 3.24,2.76 1.92,0 3.24,-1.08 3.36,-3 l -1.56,0 c -0.24,0.84 -0.84,1.32 -1.8,1.32 -0.72,0 -1.56,-0.24 -1.56,-1.08 0,-0.36 0.24,-0.6 0.84,-0.72 0.6,-0.24 1.56,-0.48 2.28,-0.72 1.08,-0.36 2.04,-1.08 2.04,-2.28 0,-2.16 -1.68,-2.88 -3.48,-2.88"
       style="fill:#005a9b;fill-opacity:1;fill-rule:nonzero;stroke:none"
       id="path44"
       inkscape:connector-curvature="0" /><path
       d="m 133.81,23.7704 -1.68,0 c -0.12,0.72 -0.6,1.44 -1.8,1.44 -1.08,0 -1.8,-0.6 -1.8,-1.68 l 0,-2.76 c 0,-0.72 0.48,-1.68 1.8,-1.68 1.08,0 1.68,0.6 1.8,1.44 l 1.68,0 c -0.24,-1.92 -1.56,-3.12 -3.48,-3.12 -1.92,0 -3.36,1.32 -3.36,3.36 l 0,2.76 c 0,2.04 1.44,3.36 3.36,3.36 1.92,0 3.24,-1.2 3.48,-3.12"
       style="fill:#005a9b;fill-opacity:1;fill-rule:nonzero;stroke:none"
       id="path46"
       inkscape:connector-curvature="0" /><path
       d="m 140.89,17.6504 0,5.88 c 0,0.72 -0.12,1.68 -1.56,1.68 -1.08,0 -1.92,-0.6 -1.92,-1.56 l 0,-6 -1.56,0 0,12.36 1.56,0 0,-3.72 c 0.48,0.36 1.2,0.6 1.92,0.6 2.16,0 3.24,-1.32 3.24,-3.36 l 0,-5.88 -1.68,0"
       style="fill:#005a9b;fill-opacity:1;fill-rule:nonzero;stroke:none"
       id="path48"
       inkscape:connector-curvature="0" /><path
       d="m 150.01,17.6504 0,0.6 c -0.36,-0.36 -1.08,-0.72 -1.92,-0.72 -1.92,0 -3.36,1.2 -3.36,3.24 l 0,6 1.68,0 0,-6 c 0,-0.72 0.36,-1.68 1.68,-1.68 1.08,0 1.92,0.6 1.92,1.68 l 0,6 1.56,0 0,-9.12 -1.56,0"
       style="fill:#005a9b;fill-opacity:1;fill-rule:nonzero;stroke:none"
       id="path50"
       inkscape:connector-curvature="0" /><path
       d="m 153.97,30.0104 1.68,0 0,-10.08 c 0,-0.48 0.24,-0.72 0.6,-0.72 l 0.6,0 0,-1.56 -0.6,0 c -1.2,0 -2.28,0.6 -2.28,2.4 l 0,9.96"
       style="fill:#005a9b;fill-opacity:1;fill-rule:nonzero;stroke:none"
       id="path52"
       inkscape:connector-curvature="0" /><path
       d="m 165.25,21.6104 -5.16,0 0,-0.84 c 0,-0.72 0.36,-1.68 1.8,-1.68 0.84,0 1.56,0.6 1.68,1.44 l 1.68,0 c -0.24,-1.92 -1.56,-3.12 -3.36,-3.12 -2.16,0 -3.48,1.32 -3.48,3.36 l 0,2.76 c 0,2.04 1.44,3.36 3.48,3.36 2.04,0 3.36,-1.32 3.36,-3.36 l 0,-1.92 z m -1.56,1.92 0,0 c 0,0.72 -0.36,1.68 -1.8,1.68 -1.2,0 -1.8,-0.6 -1.8,-1.68 l 0,-0.36 3.6,0 0,0.36"
       style="fill:#005a9b;fill-opacity:1;fill-rule:nonzero;stroke:none"
       id="path54"
       inkscape:connector-curvature="0" /><path
       d="m 83.89,3.8504 -1.68,0 0,12.48 1.68,0 0,-12.48"
       style="fill:#005a9b;fill-opacity:1;fill-rule:nonzero;stroke:none"
       id="path56"
       inkscape:connector-curvature="0" /><path
       d="m 91.45,3.8504 0,6 c 0,0.72 -0.24,1.68 -1.68,1.68 -0.96,0 -1.8,-0.72 -1.8,-1.68 l 0,-6 -1.68,0 0,9.12 1.68,0 0,-0.48 c 0.48,0.48 1.2,0.72 1.8,0.72 2.16,0 3.24,-1.32 3.24,-3.36 l 0,-6 -1.56,0"
       style="fill:#005a9b;fill-opacity:1;fill-rule:nonzero;stroke:none"
       id="path58"
       inkscape:connector-curvature="0" /><path
       d="m 100.33,4.4504 0,0 c -0.36,-0.36 -1.08,-0.72 -1.8,-0.72 -2.04,0 -3.36,1.32 -3.36,3.36 l 0,2.76 c 0,1.92 1.32,3.36 3.36,3.36 0.72,0 1.44,-0.36 1.8,-0.72 l 0,0.48 1.56,0 0,-9.72 c 0,-2.52 -1.56,-3.24 -3.36,-3.24 -1.56,0 -2.88,0.84 -3.12,2.4 l 1.68,0 c 0.24,-0.48 0.84,-0.84 1.44,-0.84 0.84,0 1.8,0.24 1.8,1.68 l 0,1.2 z m 0,5.4 0,0 c 0,0.72 -0.36,1.68 -1.8,1.68 -1.08,0 -1.68,-0.6 -1.68,-1.68 l 0,-2.76 c 0,-0.72 0.24,-1.68 1.68,-1.68 1.2,0 1.8,0.6 1.8,1.68 l 0,2.76"
       style="fill:#005a9b;fill-opacity:1;fill-rule:nonzero;stroke:none"
       id="path60"
       inkscape:connector-curvature="0" /><path
       d="m 107.53,3.7304 0,0 c -2.04,0 -3.36,1.32 -3.36,3.36 l 0,2.76 c 0,1.92 1.32,3.36 3.36,3.36 2.16,0 3.48,-1.32 3.48,-3.36 l 0,-2.76 c 0,-2.04 -1.44,-3.36 -3.48,-3.36 z m 1.8,6.12 0,0 c 0,0.72 -0.36,1.68 -1.8,1.68 -1.08,0 -1.8,-0.6 -1.8,-1.68 l 0,-2.76 c 0,-0.72 0.48,-1.68 1.8,-1.68 1.2,0 1.8,0.6 1.8,1.68 l 0,2.76"
       style="fill:#005a9b;fill-opacity:1;fill-rule:nonzero;stroke:none"
       id="path62"
       inkscape:connector-curvature="0" /><path
       d="m 113.17,16.3304 1.68,0 0,-9.96 c 0,-0.72 0.36,-0.84 0.72,-0.84 l 0.6,0 0,-1.68 -0.72,0 c -1.2,0 -2.28,0.72 -2.28,2.52 l 0,9.96"
       style="fill:#005a9b;fill-opacity:1;fill-rule:nonzero;stroke:none"
       id="path64"
       inkscape:connector-curvature="0" /><path
       d="m 120.85,3.7304 0,0 c -1.8,0 -3.24,1.2 -3.36,3.24 l 1.68,0 c 0.12,-1.08 0.72,-1.56 1.68,-1.56 0.96,0 1.8,0.24 1.8,1.32 0,0.36 -0.36,0.72 -0.72,0.84 -0.84,0.24 -1.56,0.36 -2.28,0.6 -1.2,0.36 -2.04,1.08 -2.04,2.28 0,1.92 1.56,2.76 3.24,2.76 1.8,0 3.24,-1.08 3.36,-3 l -1.68,0 c -0.12,0.84 -0.6,1.32 -1.68,1.32 -0.72,0 -1.56,-0.24 -1.56,-1.08 0,-0.36 0.24,-0.72 0.84,-0.84 0.6,-0.12 1.56,-0.36 2.28,-0.6 1.08,-0.36 1.92,-1.08 1.92,-2.28 0,-2.16 -1.56,-3 -3.48,-3"
       style="fill:#005a9b;fill-opacity:1;fill-rule:nonzero;stroke:none"
       id="path66"
       inkscape:connector-curvature="0" /><path
       d="m 125.65,12.9704 1.68,0 0,3.36 1.68,0 0,-3.36 1.8,0 0,-1.56 -1.8,0 0,-5.04 c 0,-0.72 0.24,-0.84 0.6,-0.84 l 1.2,0 0,-1.68 -1.2,0 c -1.32,0 -2.28,0.72 -2.28,2.52 l 0,5.04 -1.68,0 0,1.56"
       style="fill:#005a9b;fill-opacity:1;fill-rule:nonzero;stroke:none"
       id="path68"
       inkscape:connector-curvature="0" /><path
       d="m 139.33,3.8504 -1.68,0 0,0.72 c -0.36,-0.48 -1.2,-0.84 -2.04,-0.84 -1.44,0 -3.12,0.96 -3.12,3 0,1.8 1.32,2.76 3.12,2.76 l 2.04,0 0,0.6 c 0,1.08 -0.6,1.44 -1.56,1.44 -0.72,0 -1.44,-0.36 -1.68,-1.32 l -1.56,0 c 0.12,2.16 1.92,3 3.24,3 1.56,0 3.24,-0.84 3.24,-3 l 0,-6.36 z m -1.68,4.08 -2.04,0 c -0.84,0 -1.44,-0.36 -1.44,-1.2 0,-1.08 0.84,-1.44 1.68,-1.44 0.84,0 1.8,0.72 1.8,1.8 l 0,0.84"
       style="fill:#005a9b;fill-opacity:1;fill-rule:nonzero;stroke:none"
       id="path70"
       inkscape:connector-curvature="0" /><path
       d="m 141.49,9.8504 0,0 c 0,2.04 1.32,3.36 3.36,3.36 0.72,0 1.44,-0.36 1.8,-0.84 l 0,3.96 1.68,0 0,-12.48 -1.68,0 0,0.6 c -0.36,-0.36 -1.08,-0.72 -1.8,-0.72 -1.92,0 -3.36,1.32 -3.36,3.36 l 0,2.76 z m 1.68,-2.76 0,0 c 0,-1.08 0.6,-1.68 1.68,-1.68 1.44,0 1.8,0.96 1.8,1.68 l 0,2.76 c 0,1.08 -0.72,1.68 -1.8,1.68 -1.32,0 -1.68,-0.96 -1.68,-1.68 l 0,-2.76"
       style="fill:#005a9b;fill-opacity:1;fill-rule:nonzero;stroke:none"
       id="path72"
       inkscape:connector-curvature="0" /><path
       d="m 150.01,12.9704 1.56,0 0,3.36 1.68,0 0,-3.36 1.92,0 0,-1.56 -1.92,0 0,-5.04 c 0,-0.72 0.36,-0.84 0.72,-0.84 l 1.2,0 0,-1.68 -1.2,0 c -1.32,0 -2.4,0.72 -2.4,2.52 l 0,5.04 -1.56,0 0,1.56"
       style="fill:#005a9b;fill-opacity:1;fill-rule:nonzero;stroke:none"
       id="path74"
       inkscape:connector-curvature="0" /><path
       d="m 87.97,68.1704 0,0 c -1.44,0.36 -2.76,-0.48 -3.24,-1.92 -0.36,-1.44 0.48,-3 1.92,-3.36 1.44,-0.36 2.88,0.48 3.24,1.92 0.36,1.44 -0.48,2.88 -1.92,3.36"
       style="fill:#005a9b;fill-opacity:1;fill-rule:nonzero;stroke:none"
       id="path76"
       inkscape:connector-curvature="0" /><path
       d="m 79.69,63.2504 -9.48,0 1.8,7.2 c 0.24,0.84 -0.12,1.68 -0.96,1.92 l -1.44,0.36 c -0.84,0.24 -1.68,-0.24 -1.92,-1.08 l -2.16,-8.4 -7.56,0 c -0.84,0 -1.68,-0.72 -1.92,-1.56 l -0.36,-1.56 c -0.24,-0.72 0.24,-1.44 1.08,-1.44 l 7.44,0 -1.8,-7.2 c -0.24,-0.84 0.12,-1.68 0.96,-1.92 l 1.44,-0.36 c 0.84,-0.24 1.68,0.24 1.92,1.08 l 2.28,8.4 10.68,0 c 1.56,0 2.76,-1.2 2.76,-2.64 0,-0.24 -0.12,-0.48 -0.12,-0.6 l -3.48,-13.2 c -0.24,-0.72 0.24,-1.56 1.08,-1.8 l 1.44,-0.36 c 0.72,-0.24 1.56,0.24 1.8,0.96 l 3.6,13.08 0,0 c 0.12,0.6 0.24,1.2 0.24,1.92 0,3.96 -3.24,7.2 -7.32,7.2"
       style="fill:#005a9b;fill-opacity:1;fill-rule:nonzero;stroke:none"
       id="path78"
       inkscape:connector-curvature="0" /><path
       d="m 3.97,29.0504 0,-11.4 -0.96,0 0,11.4 -3,0 0,0.96 7.08,0 0,-0.96 -3.12,0"
       style="fill:#005a9b;fill-opacity:1;fill-rule:nonzero;stroke:none"
       id="path80"
       inkscape:connector-curvature="0" /><path
       d="m 13.69,21.9704 -5.88,0 0,-1.32 c 0,-1.08 0.6,-2.28 2.52,-2.28 1.32,0 2.28,0.72 2.4,2.04 l 0.84,0 c -0.12,-1.8 -1.32,-3 -3.24,-3 -2.04,0 -3.36,1.32 -3.36,3.24 l 0,3 c 0,1.92 1.32,3.24 3.36,3.24 1.92,0 3.36,-1.2 3.36,-3.24 l 0,-1.68 z m -0.96,1.68 0,0 c 0,1.08 -0.48,2.28 -2.4,2.28 -1.44,0 -2.52,-0.84 -2.52,-2.28 l 0,-0.84 4.92,0 0,0.84"
       style="fill:#005a9b;fill-opacity:1;fill-rule:nonzero;stroke:none"
       id="path82"
       inkscape:connector-curvature="0" /><path
       d="m 22.33,23.8904 -0.96,0 c 0,0.96 -0.48,2.04 -2.28,2.04 -1.56,0 -2.4,-0.84 -2.4,-2.28 l 0,-3 c 0,-0.96 0.48,-2.28 2.4,-2.28 1.32,0 2.28,0.72 2.28,2.04 l 0.96,0 c -0.12,-1.8 -1.32,-3 -3.24,-3 -2.04,0 -3.36,1.32 -3.36,3.24 l 0,3 c 0,1.92 1.32,3.24 3.36,3.24 1.92,0 3.24,-1.08 3.24,-3"
       style="fill:#005a9b;fill-opacity:1;fill-rule:nonzero;stroke:none"
       id="path84"
       inkscape:connector-curvature="0" /><path
       d="m 30.01,17.6504 0,6 c 0,1.08 -0.12,2.28 -2.16,2.28 -1.44,0 -2.52,-0.96 -2.52,-2.16 l 0,-6.12 -0.96,0 0,12.24 0.96,0 0,-4.32 c 0.6,0.96 1.68,1.32 2.52,1.32 2.04,0 3.12,-1.2 3.12,-3.24 l 0,-6 -0.96,0"
       style="fill:#005a9b;fill-opacity:1;fill-rule:nonzero;stroke:none"
       id="path86"
       inkscape:connector-curvature="0" /><path
       d="m 39.01,17.6504 0,6 c 0,1.08 -0.24,2.28 -2.16,2.28 -1.44,0 -2.52,-0.96 -2.52,-2.16 l 0,-6.12 -0.96,0 0,9.12 0.96,0 0,-1.2 c 0.6,1.08 1.56,1.32 2.52,1.32 2.04,0 3.12,-1.2 3.12,-3.24 l 0,-6 -0.96,0"
       style="fill:#005a9b;fill-opacity:1;fill-rule:nonzero;stroke:none"
       id="path88"
       inkscape:connector-curvature="0" /><path
       d="m 42.25,30.1304 1.2,0 0,-1.56 -1.2,0 0,1.56 z m 0.12,-3.36 0.96,0 0,-9.12 -0.96,0 0,9.12"
       style="fill:#005a9b;fill-opacity:1;fill-rule:nonzero;stroke:none"
       id="path90"
       inkscape:connector-curvature="0" /><path
       d="m 48.73,17.5304 0,0 c -1.92,0 -3.36,0.96 -3.36,2.76 l 1.08,0 c 0,-1.2 0.84,-1.92 2.28,-1.92 1.08,0 2.4,0.36 2.4,1.92 0,0.6 -0.48,1.08 -1.32,1.32 -0.72,0.12 -1.56,0.36 -2.28,0.6 -1.08,0.12 -1.92,0.96 -1.92,2.16 0,1.8 1.44,2.52 3,2.52 2.04,0 3.36,-1.08 3.36,-2.88 l -0.96,0 c 0,1.2 -0.72,1.92 -2.4,1.92 -0.96,0 -2.16,-0.36 -2.16,-1.56 0,-0.6 0.6,-1.2 1.32,-1.32 0.6,-0.12 1.68,-0.36 2.52,-0.6 0.96,-0.24 1.8,-1.08 1.8,-2.16 0,-2.04 -1.56,-2.76 -3.36,-2.76"
       style="fill:#005a9b;fill-opacity:1;fill-rule:nonzero;stroke:none"
       id="path92"
       inkscape:connector-curvature="0" /><path
       d="m 60.73,23.8904 -0.96,0 c 0,0.96 -0.6,2.04 -2.4,2.04 -1.44,0 -2.4,-0.84 -2.4,-2.28 l 0,-3 c 0,-0.96 0.48,-2.28 2.4,-2.28 1.32,0 2.28,0.72 2.4,2.04 l 0.96,0 c -0.12,-1.8 -1.44,-3 -3.36,-3 -2.04,0 -3.36,1.32 -3.36,3.24 l 0,3 c 0,1.92 1.32,3.24 3.36,3.24 1.92,0 3.24,-1.08 3.36,-3"
       style="fill:#005a9b;fill-opacity:1;fill-rule:nonzero;stroke:none"
       id="path94"
       inkscape:connector-curvature="0" /><path
       d="m 68.41,17.6504 0,6 c 0,1.08 -0.24,2.28 -2.28,2.28 -1.32,0 -2.4,-0.96 -2.4,-2.16 l 0,-6.12 -0.96,0 0,12.24 0.96,0 0,-4.32 c 0.48,0.96 1.56,1.32 2.4,1.32 2.04,0 3.24,-1.2 3.24,-3.24 l 0,-6 -0.96,0"
       style="fill:#005a9b;fill-opacity:1;fill-rule:nonzero;stroke:none"
       id="path96"
       inkscape:connector-curvature="0" /><path
       d="m 78.25,21.9704 -5.76,0 0,-1.32 c 0,-1.08 0.48,-2.28 2.4,-2.28 1.44,0 2.28,0.72 2.4,2.04 l 0.84,0 c 0,-1.8 -1.32,-3 -3.24,-3 -2.04,0 -3.36,1.32 -3.36,3.24 l 0,3 c 0,1.92 1.32,3.24 3.36,3.24 2.04,0 3.36,-1.2 3.36,-3.24 l 0,-1.68 z m -0.96,1.68 0,0 c 0,1.08 -0.48,2.28 -2.4,2.28 -1.44,0 -2.4,-0.84 -2.4,-2.28 l 0,-0.84 4.8,0 0,0.84"
       style="fill:#005a9b;fill-opacity:1;fill-rule:nonzero;stroke:none"
       id="path98"
       inkscape:connector-curvature="0" /><g
       clip-path="url(#clipPath104)"
       id="g102"
       transform="matrix(0.12,0,0,0.12,-135.35,-491.59)"><path
         inkscape:connector-curvature="0"
         id="path108"
         style="fill:#ffffff;fill-opacity:1;fill-rule:evenodd;stroke:none"
         d="m 229,509.668 4500,0 0,6000 -4500,0 0,-6000 z" /></g><g
       id="layer1"
       transform="matrix(0.31538888,0,0,-0.31538888,157.03068,96.628465)"><g
         id="g39870"><path
           id="path37627"
           style="fill:#004a93;fill-opacity:1;fill-rule:evenodd;stroke:none"
           d="m 157.90708,218.51549 -21.69896,0 11.52758,-37.49853 10.17138,37.49853 z m -31.87035,37.90538 6.78093,-22.85173 27.8018,0 6.78092,22.85173 23.05515,0 -24.41133,-86.72805 c -1.35619,-5.69599 -4.06856,-7.52684 -10.17139,-7.52684 l -33.90463,0 0,7.79807 2.71237,0 c 4.06855,0 6.10283,1.28838 6.10283,4.40761 0,1.96647 0,3.25484 -2.03428,7.93368 l -24.41133,74.11553"
           inkscape:connector-curvature="0" /><path
           id="path37629"
           style="fill:#004a93;fill-opacity:1;fill-rule:nonzero;stroke:none"
           d="m 219.61351,256.42087 0,-87.33834 c 0,-4.54322 -2.71237,-6.91655 -7.45901,-6.91655 l -21.02088,0 0,7.79807 1.35619,0 c 4.06855,0 6.10283,1.69524 6.10283,5.35694 l 0,81.09988"
           inkscape:connector-curvature="0" /><path
           id="path37631"
           style="fill:#004a93;fill-opacity:1;fill-rule:nonzero;stroke:none"
           d="m 257.5867,256.42087 0,-87.33834 c 0,-4.54322 -2.71237,-6.91655 -7.45902,-6.91655 l -21.02087,0 0,7.79807 1.35619,0 c 4.06855,0 6.10283,1.69524 6.10283,5.35694 l 0,81.09988"
           inkscape:connector-curvature="0" /><path
           id="path37633"
           style="fill:#004a93;fill-opacity:1;fill-rule:evenodd;stroke:none"
           d="m 296.23798,170.50653 c 0,-6.23846 -4.74665,-9.90016 -12.20567,-9.90016 -8.13711,0 -12.20566,3.6617 -12.20566,9.90016 0,6.37407 4.06855,10.10358 12.20566,10.10358 7.45902,0 12.20567,-3.72951 12.20567,-10.10358 m -0.67809,85.91434 0,-63.60509 c 0,-4.40761 -2.71237,-6.98436 -6.78093,-6.98436 l -21.02087,0 0,7.66245 1.35619,0 c 4.06855,0 5.42474,1.69523 5.42474,5.56036 l 0,57.36664"
           inkscape:connector-curvature="0" /><path
           id="path37635"
           style="fill:#004a93;fill-opacity:1;fill-rule:evenodd;stroke:none"
           d="m 345.73874,222.17719 0,14.10432 c -4.06855,4.06856 -8.8152,6.37407 -12.88376,6.37407 -4.06855,0 -6.10283,-1.96646 -6.10283,-7.25559 0,-5.83159 1.35619,-8.0693 6.10283,-9.90015 3.39047,-1.42399 6.78093,-2.30551 12.88376,-3.32265 m -29.83607,-16.88451 2.03428,-0.81371 c 5.42474,-2.1699 8.8152,-2.98361 12.88376,-3.72951 2.03427,-0.27124 4.74664,-0.54247 6.10283,-0.54247 6.78093,0 8.8152,2.2377 8.8152,8.47615 l 0,1.76304 c -9.49329,1.55962 -12.20566,2.10209 -17.6304,3.25485 -2.71238,0.67809 -5.42475,1.55961 -8.13712,2.71237 -8.8152,3.52608 -12.88376,10.30701 -12.88376,20.95306 0,13.35843 5.42474,19.7325 17.63041,19.7325 4.74665,0 9.4933,-1.08495 12.88376,-3.25485 3.39047,-1.55961 4.74665,-2.37332 8.81521,-6.10283 l 0,2.1699 c 0,4.4076 2.03427,6.50969 6.10283,6.50969 l 20.34278,0 0,-7.2556 -0.67809,0 c -4.06856,0 -6.10284,-1.83085 -6.10284,-5.49255 l 0,-34.65053 c 0,-18.03726 -6.10283,-24.1401 -23.73324,-24.1401 -6.10283,0 -11.52757,0.6781 -16.95232,1.96647 -5.42474,1.28838 -8.13711,2.23771 -14.23994,5.42474"
           inkscape:connector-curvature="0" /><path
           id="path37637"
           style="fill:#004a93;fill-opacity:1;fill-rule:evenodd;stroke:none"
           d="m 404.7328,256.42087 0,-47.87334 c 4.74665,-4.40761 8.13711,-6.10284 12.88376,-6.10284 4.74665,0 6.10284,2.03428 6.10284,9.22206 l 0,44.75412 21.02087,0 0,-48.14458 c 0,-9.90015 -1.35619,-14.17214 -4.06856,-17.90165 -3.39046,-3.6617 -7.45902,-5.35693 -13.56185,-5.35693 -8.13711,0 -14.23995,2.98361 -23.73324,11.18853 l 0,-3.79732 c 0,-4.4076 -2.03428,-6.5775 -6.10284,-6.5775 l -20.34278,0 0,7.66245 0.6781,0 c 4.06855,0 6.10283,1.69523 6.10283,5.56036 l 0,57.36664"
           inkscape:connector-curvature="0" /><g
           id="g37643"
           clip-path="url(#clp5)"
           style="fill:#143861;fill-opacity:1;fill-rule:evenodd;stroke:none"
           transform="matrix(6.780926,0,0,-6.780926,-9776.146,5300.883)"><path
             id="path37645"
             style="fill:#004a93;fill-opacity:1;fill-rule:nonzero;stroke:none"
             d="m 1516.9,745.91 -4.6,0 4.4,6.28 0,2.14 -6.6,0 c -0.8,0 -1.1,-0.32 -1.1,-1.09 l 0,-1.89 1.1,0 0,0.21 c 0,0.57 0.3,0.8 0.9,0.8 l 2.4,0 -4.5,-6.28 0,-2.16 8,0"
             inkscape:connector-curvature="0" /><path
             id="path37647"
             style="fill:#004a93;fill-opacity:1;fill-rule:evenodd;stroke:none"
             d="m 1534.6,744.49 0,11.78 c 0,0.95 -0.4,1.26 -1.3,1.26 l -2.7,0 0,-1.3 0.3,0 c 0.5,0 0.7,-0.19 0.7,-0.77 l 0,-10.97 3,0 z m 1.6,0 2.9,0 0,8.89 c 0,0.9 -0.4,1.26 -1.3,1.26 l -1.6,0 0,-10.15 z m -6.2,0 0,10.15 -1.6,0 c -0.9,0 -1.3,-0.36 -1.3,-1.26 l 0,-8.89 2.9,0 z m 12.5,5.92 c 0,-5.51 -4,-9.53 -9.4,-9.53 -5.4,0 -9.4,4.02 -9.4,9.53 0,5.51 4,9.53 9.4,9.53 5.4,0 9.4,-4.02 9.4,-9.53 m 1.9,0 c 0,6.45 -4.8,11.29 -11.3,11.29 -6.4,0 -11.3,-4.84 -11.3,-11.29 0,-6.47 4.9,-11.31 11.3,-11.31 6.5,0 11.3,4.84 11.3,11.31"
             inkscape:connector-curvature="0" /></g></g></g></g></svg>